{
  "accessors": [
    {
      "bufferView": 2,
      "componentType": 5126,
      "count": 56504,
      "max": [
        8.637365341186523,
        7.8367791175842285,
        3.7654850482940674
      ],
      "min": [
        -6.809593200683594,
        -11.876080513000488,
        -3.985478162765503
      ],
      "type": "VEC3"
    },
    {
      "bufferView": 2,
      "byteOffset": 678048,
      "componentType": 5126,
      "count": 56504,
      "max": [
        0.9999696016311646,
        0.9998633861541748,
        0.9999984502792358
      ],
      "min": [
        -0.9999297857284546,
        -0.9999884366989136,
        -0.9999992847442627
      ],
      "type": "VEC3"
    },
    {
      "bufferView": 1,
      "componentType": 5126,
      "count": 56504,
      "max": [
        0.999628484249115,
        0.9732286930084229
      ],
      "min": [
        0.0003715553320944309,
        0.0003715553320944309
      ],
      "type": "VEC2"
    },
    {
      "bufferView": 1,
      "byteOffset": 452032,
      "componentType": 5126,
      "count": 56504,
      "max": [
        0.999628484249115,
        0.9732286930084229
      ],
      "min": [
        0.0003715553320944309,
        0.0003715553320944309
      ],
      "type": "VEC2"
    },
    {
      "bufferView": 0,
      "componentType": 5125,
      "count": 319920,
      "type": "SCALAR"
    },
    {
      "bufferView": 2,
      "byteOffset": 1356096,
      "componentType": 5126,
      "count": 14,
      "max": [
        1.2092499732971191,
        0.7629334926605225,
        1.3665627241134644
      ],
      "min": [
        -1.2092499732971191,
        0.12908214330673218,
        -1.0061306953430176
      ],
      "type": "VEC3"
    },
    {
      "bufferView": 2,
      "byteOffset": 1356264,
      "componentType": 5126,
      "count": 14,
      "max": [
        0.9686245322227478,
        0.9909064769744873,
        -0.08845929801464081
      ],
      "min": [
        -0.9686245322227478,
        0.2322530448436737,
        -0.13310523331165314
      ],
      "type": "VEC3"
    },
    {
      "bufferView": 1,
      "byteOffset": 904064,
      "componentType": 5126,
      "count": 14,
      "max": [
        0.6235122084617615,
        1.0
      ],
      "min": [
        0.0,
        0.0
      ],
      "type": "VEC2"
    },
    {
      "bufferView": 0,
      "byteOffset": 1279680,
      "componentType": 5125,
      "count": 18,
      "type": "SCALAR"
    },
    {
      "bufferView": 2,
      "byteOffset": 1356432,
      "componentType": 5126,
      "count": 19026,
      "max": [
        1.6930205821990967,
        0.9761945009231567,
        1.6742236614227295
      ],
      "min": [
        -2.2944536209106445,
        -2.36163592338562,
        -1.503240704536438
      ],
      "type": "VEC3"
    },
    {
      "bufferView": 2,
      "byteOffset": 1584744,
      "componentType": 5126,
      "count": 19026,
      "max": [
        0.9999574422836304,
        0.997631847858429,
        0.9999957084655762
      ],
      "min": [
        -0.9999579191207886,
        -0.9914581179618835,
        -0.9999961853027344
      ],
      "type": "VEC3"
    },
    {
      "bufferView": 1,
      "byteOffset": 904176,
      "componentType": 5126,
      "count": 19026,
      "max": [
        0.9830583333969116,
        0.9999998807907104
      ],
      "min": [
        0.0,
        0.0
      ],
      "type": "VEC2"
    },
    {
      "bufferView": 1,
      "byteOffset": 1056384,
      "componentType": 5126,
      "count": 19026,
      "max": [
        0.9830583333969116,
        0.9999998807907104
      ],
      "min": [
        0.0,
        0.0
      ],
      "type": "VEC2"
    },
    {
      "bufferView": 0,
      "byteOffset": 1279752,
      "componentType": 5125,
      "count": 97824,
      "type": "SCALAR"
    }
  ],
  "asset": {
    "extras": {
      "author": "Osman (https://sketchfab.com/ozbatir)",
      "license": "CC-BY-4.0 (http://creativecommons.org/licenses/by/4.0/)",
      "source": "https://sketchfab.com/3d-models/happy-astro-d442b5361a2446aca53536f666289c5e",
      "title": "Happy Astro"
    },
    "generator": "Sketchfab-12.66.0",
    "version": "2.0"
  },
  "bufferViews": [
    {
      "buffer": 0,
      "byteLength": 1671048,
      "name": "floatBufferViews",
      "target": 34963
    },
    {
      "buffer": 0,
      "byteLength": 1208592,
      "byteOffset": 1671048,
      "byteStride": 8,
      "name": "floatBufferViews",
      "target": 34962
    },
    {
      "buffer": 0,
      "byteLength": 1813056,
      "byteOffset": 2879640,
      "byteStride": 12,
      "name": "floatBufferViews",
      "target": 34962
    }
  ],
  "buffers": [
    {
      "byteLength": 4692696,
      "uri": "scene.bin"
    }
  ],
  "images": [
    {
      "uri": "textures/Material_baseColor.png"
    },
    {
      "uri": "textures/Material_metallicRoughness.png"
    },
    {
      "uri": "textures/Material.002_baseColor.png"
    },
    {
      "uri": "textures/Material.001_baseColor.png"
    },
    {
      "uri": "textures/Material.001_metallicRoughness.png"
    }
  ],
  "materials": [
    {
      "doubleSided": true,
      "name": "Material",
      "pbrMetallicRoughness": {
        "baseColorTexture": {
          "index": 0
        },
        "metallicFactor": 0.0,
        "metallicRoughnessTexture": {
          "index": 1
        }
      }
    },
    {
      "doubleSided": true,
      "name": "Material.002",
      "pbrMetallicRoughness": {
        "baseColorTexture": {
          "index": 2
        },
        "metallicFactor": 0.0,
        "roughnessFactor": 0.5
      }
    },
    {
      "doubleSided": true,
      "name": "Material.001",
      "pbrMetallicRoughness": {
        "baseColorTexture": {
          "index": 3
        },
        "metallicFactor": 0.0,
        "metallicRoughnessTexture": {
          "index": 4
        }
      }
    }
  ],
  "meshes": [
    {
      "name": "Object_0",
      "primitives": [
        {
          "attributes": {
            "NORMAL": 1,
            "POSITION": 0,
            "TEXCOORD_0": 2,
            "TEXCOORD_1": 3
          },
          "indices": 4,
          "material": 0,
          "mode": 4
        }
      ]
    },
    {
      "name": "Object_1",
      "primitives": [
        {
          "attributes": {
            "NORMAL": 6,
            "POSITION": 5,
            "TEXCOORD_0": 7
          },
          "indices": 8,
          "material": 1,
          "mode": 4
        }
      ]
    },
    {
      "name": "Object_2",
      "primitives": [
        {
          "attributes": {
            "NORMAL": 10,
            "POSITION": 9,
            "TEXCOORD_0": 11,
            "TEXCOORD_1": 12
          },
          "indices": 13,
          "material": 2,
          "mode": 4
        }
      ]
    }
  ],
  "nodes": [
    {
      "children": [
        1
      ],
      "matrix": [
        1.0,
        0.0,
        0.0,
        0.0,
        0.0,
        2.220446049250313e-16,
        -1.0,
        0.0,
        0.0,
        1.0,
        2.220446049250313e-16,
        0.0,
        0.0,
        0.0,
        0.0,
        1.0
      ],
      "name": "Sketchfab_model"
    },
    {
      "children": [
        2
      ],
      "name": "root"
    },
    {
      "children": [
        3,
        5,
        7
      ],
      "matrix": [
        1.0,
        0.0,
        0.0,
        0.0,
        0.0,
        2.220446049250313e-16,
        1.0,
        0.0,
        0.0,
        -1.0,
        2.220446049250313e-16,
        0.0,
        0.0,
        0.0,
        0.0,
        1.0
      ],
      "name": "GLTF_SceneRootNode"
    },
    {
      "children": [
        4
      ],
      "matrix": [
        0.04316791325559207,
        -0.09564684682552443,
        -0.04517133780580749,
        0.0,
        0.06608173144291364,
        0.062481345168046966,
        -0.06914856525750941,
        0.0,
        0.11611536329595365,
        -1.1653311210656814e-08,
        0.11096547697020676,
        0.0,
        0.0,
        0.0,
        0.0,
        1.0
      ],
      "name": "astro_0"
    },
    {
      "mesh": 0,
      "name": "Object_4"
    },
    {
      "children": [
        6
      ],
      "matrix": [
        0.3377420794701345,
        -0.10257918344340178,
        0.3834901511754896,
        0.0,
        0.056310147055694926,
        -0.46180055163852496,
        -0.17311899525751132,
        0.0,
        0.5551702231484691,
        0.22811459039042908,
        -0.4279237333977584,
        0.0,
        -0.5419288873672485,
        1.0888214111328125,
        -0.2308839112520218,
        1.0
      ],
      "name": "Plane_1"
    },
    {
      "mesh": 1,
      "name": "Object_6"
    },
    {
      "children": [
        8
      ],
      "matrix": [
        0.3316812899506487,
        -6.681025074286842e-08,
        -0.3470744498796976,
        0.0,
        0.01966300877934785,
        0.47930517515924687,
        0.018790838956905847,
        0.0,
        0.34651699090384785,
        -0.027197966087043685,
        0.33114856017130145,
        0.0,
        0.16942161321640015,
        0.2587599754333496,
        -0.1540842056274414,
        1.0
      ],
      "name": "cape_2"
    },
    {
      "mesh": 2,
      "name": "Object_8"
    }
  ],
  "samplers": [
    {
      "magFilter": 9729,
      "minFilter": 9987,
      "wrapS": 10497,
      "wrapT": 10497
    }
  ],
  "scene": 0,
  "scenes": [
    {
      "name": "Sketchfab_Scene",
      "nodes": [
        0
      ]
    }
  ],
  "textures": [
    {
      "sampler": 0,
      "source": 0
    },
    {
      "sampler": 0,
      "source": 1
    },
    {
      "sampler": 0,
      "source": 2
    },
    {
      "sampler": 0,
      "source": 3
    },
    {
      "sampler": 0,
      "source": 4
    }
  ]
}
